<?xml version="1.0" encoding="UTF-8"?>
<svg width="24px" height="24px" viewBox="0 0 24 24" version="1.1" xmlns="http://www.w3.org/2000/svg" xmlns:xlink="http://www.w3.org/1999/xlink">
    <title>ico/action/24/alram_nom copy</title>
    <g id="Page-1" stroke="none" stroke-width="1" fill="none" fill-rule="evenodd">
        <g id="EP-Panel/Main_anniversary" transform="translate(-294.000000, -16.000000)">
            <g id="ico/action/24/alram_nom-copy" transform="translate(294.000000, 16.000000)">
                <rect id="Rectangle" fill-opacity="0" fill="#000000" x="0" y="0" width="24" height="24"></rect>
                <g id="Group-7" transform="translate(3.000000, 3.000000)" stroke="#ff627c">
                    <g id="Group-6" transform="translate(0.000000, 9.000000)">
                        <path d="M3.36,0 L14.64,0 C16.4956768,-7.849715e-16 18,1.50432324 18,3.36 L18,7.32 C18,8.24783838 17.2478384,9 16.32,9 L1.68,9 C0.75216162,9 3.03625838e-16,8.24783838 0,7.32 L0,3.36 C-6.7134407e-16,1.50432324 1.50432324,-1.03206919e-16 3.36,0 Z" id="Rectangle"></path>
                        <path d="M3.36,0 L14.64,0 C16.4956768,-7.849715e-16 18,1.50432324 18,3.36 L18,4.90909091 L18,4.90909091 L16.1492466,3.90122409 C15.8981525,3.76448552 15.5947486,3.76485429 15.3439877,3.90220284 L13.9104064,4.68741412 C13.6583564,4.82546869 13.3532229,4.82508799 13.1015183,4.68640491 L11.6798039,3.90307528 C11.4295165,3.76517304 11.1262892,3.7639724 10.8749175,3.89988832 L9.40892855,4.69254428 C9.15910027,4.82762569 8.85793221,4.82731947 8.60837915,4.6917303 L7.15538636,3.9022786 C6.9027122,3.76499364 6.59737082,3.76650155 6.34606489,3.90627538 L4.94307081,4.68660658 C4.69370356,4.82530214 4.39098004,4.82792274 4.13924903,4.69356506 L2.64407813,3.89553986 C2.39420021,3.76217123 2.09393586,3.7637124 1.84544015,3.89963903 L0,4.90909091 L0,4.90909091 L0,3.36 C-6.7134407e-16,1.50432324 1.50432324,-1.03206919e-16 3.36,0 Z" id="Rectangle"></path>
                    </g>
                    <g id="Group-5" transform="translate(12.272727, 0.818182)">
                        <path d="M0.84,5.72727273 L1.61454545,5.72727273 C2.07846464,5.72727273 2.45454545,6.10335354 2.45454545,6.56727273 L2.45454545,8.18181818 L2.45454545,8.18181818 L0,8.18181818 L0,6.56727273 C-1.67836018e-16,6.10335354 0.37608081,5.72727273 0.84,5.72727273 Z" id="Rectangle" stroke-width="1.26"></path>
                        <path d="M1.22727273,4.09090909 C1.90507674,4.09090909 2.45454545,3.63301849 2.45454545,3.06818182 C2.45454545,2.69162403 2.04545455,1.66889676 1.22727273,0 C0.409090909,1.66889676 0,2.69162403 0,3.06818182 C0,3.63301849 0.549468716,4.09090909 1.22727273,4.09090909 Z" id="Oval" stroke-linejoin="round"></path>
                    </g>
                    <g id="Group-5" transform="translate(2.454545, 0.818182)">
                        <path d="M0.84,5.72727273 L1.61454545,5.72727273 C2.07846464,5.72727273 2.45454545,6.10335354 2.45454545,6.56727273 L2.45454545,8.18181818 L2.45454545,8.18181818 L0,8.18181818 L0,6.56727273 C-5.68137151e-17,6.10335354 0.37608081,5.72727273 0.84,5.72727273 Z" id="Rectangle"></path>
                        <path d="M1.22727273,4.09090909 C1.90507674,4.09090909 2.45454545,3.63301849 2.45454545,3.06818182 C2.45454545,2.69162403 2.04545455,1.66889676 1.22727273,0 C0.409090909,1.66889676 0,2.69162403 0,3.06818182 C0,3.63301849 0.549468716,4.09090909 1.22727273,4.09090909 Z" id="Oval" stroke-linejoin="round"></path>
                    </g>
                    <g id="Group-5" transform="translate(7.363636, 0.000000)">
                        <path d="M0.84,5.72727273 L1.61454545,5.72727273 C2.07846464,5.72727273 2.45454545,6.10335354 2.45454545,6.56727273 L2.45454545,9 L2.45454545,9 L0,9 L0,6.56727273 C5.42085874e-17,6.10335354 0.37608081,5.72727273 0.84,5.72727273 Z" id="Rectangle"></path>
                        <path d="M1.22727273,4.09090909 C1.90507674,4.09090909 2.45454545,3.63301849 2.45454545,3.06818182 C2.45454545,2.69162403 2.04545455,1.66889676 1.22727273,0 C0.409090909,1.66889676 0,2.69162403 0,3.06818182 C0,3.63301849 0.549468716,4.09090909 1.22727273,4.09090909 Z" id="Oval" stroke-linejoin="round"></path>
                    </g>
                </g>
            </g>
        </g>
    </g>
</svg>