<svg xmlns="http://www.w3.org/2000/svg" width="16" height="16" viewBox="0 0 16 16">
    <g fill="none" fill-rule="evenodd">
        <g fill-rule="nonzero" stroke="#1D1D1B">
            <g>
                <path d="M9.825.5l2.95 2.866c.039.04.058.091.058.143 0 .051-.02.103-.059.142h0l-9.123 9.123c-.037.038-.089.06-.142.06h0H.702c-.056 0-.106-.023-.143-.06-.036-.036-.059-.087-.059-.142h0V9.825c0-.054.021-.105.06-.143h0L9.681.559c.04-.04.09-.059.143-.059h0zM7.482 2.694L10.634 5.879" transform="translate(1.333333, 1.333333)"/>
            </g>
        </g>
    </g>
</svg>
